<?xml version="1.0" encoding="UTF-8"?>
<svg xmlns="http://www.w3.org/2000/svg" width="1600" height="1100" viewBox="0 0 1600 1100">
  <rect width="100%" height="100%" fill="#f6f3ec"/>
  <text x="48" y="42" fill="#8c2f2f" font-family="ui-sans-serif,sans-serif" font-size="15" font-weight="700">CONCEPT — NOT FOR FABRICATION UNTIL FIELD-MEASURED.</text>
  <text x="48" y="68" fill="#3d3832" font-family="ui-sans-serif,sans-serif" font-size="22" font-weight="700">D-08 — Interior elevations</text>
  
    <g font-family="ui-sans-serif,sans-serif" font-size="13" fill="#2c2824">
      <text x="48" y="104">Elevations are conceptual. Interior width and ceiling (81 in vs 7 ft) are in conflict or unpublished. No desk height is specified.</text>
      <text x="48" y="145" font-weight="700">Rear wall — desk options</text>
      <rect x="48" y="165" width="460" height="300" fill="#efe8dc" stroke="#2c2824" stroke-width="2"/>
      <rect x="70" y="330" width="180" height="80" fill="#cfe3d6" stroke="#2f6f4e"/>
      <text x="90" y="375">Desk option 2</text>
      <text x="70" y="210">Lift bed above — headroom UNKNOWN</text>
      <text x="70" y="250">Option 1: desk slides out under the bed</text>
      <text x="70" y="270">Option 3: beside the bed — width may not exist</text>
      <text x="70" y="440">Width of this wall: exterior width is TBD</text>

      <text x="560" y="145" font-weight="700">Washer option A — bath</text>
      <rect x="560" y="165" width="460" height="300" fill="#efe8dc" stroke="#2c2824" stroke-width="2"/>
      <rect x="640" y="250" width="140" height="180" fill="#e7d6d2" stroke="#8a5a12"/>
      <text x="660" y="340">23.4 in wide</text>
      <text x="660" y="358">~33 in tall</text>
      <text x="580" y="200">Standpipe top 25–34 in above machine bottom</text>
      <text x="580" y="450">Vent only if WD2100XC. WDC7100XC has no duct.</text>

      <text x="1080" y="145" font-weight="700">Washer option B — rear</text>
      <rect x="1080" y="165" width="460" height="300" fill="#efe8dc" stroke="#2c2824" stroke-width="2"/>
      <rect x="1160" y="250" width="140" height="180" fill="#f3d39a" stroke="#8a5a12"/>
      <text x="1180" y="340">Same machine</text>
      <text x="1100" y="200">Competes with the desk for the lift-bed cavity</text>
      <text x="1100" y="220">Adds 148 lb on the rear lever</text>
      <text x="1100" y="450">Splendide prefers axle or midship, not the tail.</text>

      <text x="48" y="520">Epad shown as a small wall plate near the desk. Size unpublished.</text>
      <rect x="48" y="545" width="90" height="50" fill="#d9e6f5" stroke="#2c2824"/>
      <text x="60" y="575">Epad</text>
      <text x="160" y="575">Keep it out of the spray and out of the underbody box.</text>
    </g>
    
  
    <rect x="36" y="1000" width="1528" height="72" fill="#1c1915" />
    <text x="52" y="1028" fill="#f4efe6" font-family="ui-sans-serif,sans-serif" font-size="16" font-weight="700">22NFT BUILD</text>
    <text x="52" y="1052" fill="#d9c7a6" font-family="ui-sans-serif,sans-serif" font-size="13">D-08  Interior elevations</text>
    <text x="760" y="1028" fill="#f4efe6" font-family="ui-sans-serif,sans-serif" font-size="13">Scale: NOT TO SCALE</text>
    <text x="760" y="1052" fill="#d9c7a6" font-family="ui-sans-serif,sans-serif" font-size="12">Rev A   2026-10-06</text>
    <text x="1080" y="1028" fill="#f0c7c0" font-family="ui-sans-serif,sans-serif" font-size="11">CONCEPT — NOT FOR FABRICATION UNTIL FIELD-MEASURED.</text>
    <text x="1080" y="1052" fill="#b7c4c0" font-family="ui-sans-serif,sans-serif" font-size="11">Sources: Splendide installation manuals; Parris rear lift bed</text>
    
</svg>
